<?xml version="1.0" standalone="no"?><!DOCTYPE svg PUBLIC "-//W3C//DTD SVG 1.1//EN" "http://www.w3.org/Graphics/SVG/1.1/DTD/svg11.dtd"><svg t="1673246442849" class="icon" viewBox="0 0 1024 1024" version="1.1" xmlns="http://www.w3.org/2000/svg" p-id="21246" xmlns:xlink="http://www.w3.org/1999/xlink" width="200" height="200"><path d="M928 64H516.16l135.68 128H864v640h-212.16l-135.68 128H928a64 64 0 0 0 64-64V128a64 64 0 0 0-64-64z m-237.12 495.04a91.84 91.84 0 0 0 0-96 846.4 846.4 0 0 0-260.8-260.8 91.84 91.84 0 1 0-96 157.44 626.56 626.56 0 0 1 60.16 43.84l-265.28 20.8a86.4 86.4 0 0 0 0 172.16l266.56 20.8a501.44 501.44 0 0 1-61.12 43.84 91.84 91.84 0 1 0 96 157.44 846.4 846.4 0 0 0 260.48-259.52z" fill="#999999" p-id="21247"></path></svg>