<svg t="1673273530285" class="icon" viewBox="0 0 1024 1024" version="1.1" xmlns="http://www.w3.org/2000/svg" p-id="3349" width="200" height="200"><path d="M808.7552 812.5952l-239.7184 112.8448a121.83552 121.83552 0 0 1-104.2432-0.2048l-236.8512-112.5376a121.92768 121.92768 0 0 1-69.5808-110.1312V216.3712c0-67.328 54.5792-121.9072 121.9072-121.9072h476.5184c67.328 0 121.9072 54.5792 121.9072 121.9072v485.9392c0.0512 47.2064-27.2384 90.1632-69.9392 110.2848z" fill="#FF5D50" p-id="3350" data-spm-anchor-id="a313x.7781069.0.i0" class=""></path><path d="M575.744 285.7472l19.5584 39.6288c9.2672 18.8416 27.2384 31.8976 48.0256 34.9184l43.7248 6.3488c52.3264 7.5776 73.216 71.8848 35.3792 108.8l-31.6416 30.8224a63.65184 63.65184 0 0 0-18.3296 56.4736l7.4752 43.52c8.96 52.1216-45.7728 91.8528-92.5696 67.2256l-39.1168-20.5312a63.78496 63.78496 0 0 0-59.392 0l-39.1168 20.5312c-46.7968 24.6272-101.4784-15.1552-92.5696-67.2256l7.4752-43.52c3.5328-20.6848-3.328-41.8304-18.3296-56.4736l-31.6416-30.8224c-37.8368-36.9152-16.9472-101.2224 35.3792-108.8l43.7248-6.3488c20.7872-3.0208 38.7584-16.0768 48.0256-34.9184l19.5584-39.6288c23.3984-47.4112 90.9824-47.4112 114.3808 0z" fill="#FFDF99" p-id="3351"></path></svg>