<?xml version="1.0" standalone="no"?><!DOCTYPE svg PUBLIC "-//W3C//DTD SVG 1.1//EN" "http://www.w3.org/Graphics/SVG/1.1/DTD/svg11.dtd"><svg t="1673246459090" class="icon" viewBox="0 0 1024 1024" version="1.1" xmlns="http://www.w3.org/2000/svg" p-id="22626" xmlns:xlink="http://www.w3.org/1999/xlink" width="200" height="200"><path d="M866.133333 157.866667l-81.066666 81.066666c-149.333333-149.333333-392.533333-149.333333-541.866667 0s-149.333333 392.533333 0 541.866667c72.533333 76.8 170.666667 115.2 268.8 115.2s196.266667-38.4 273.066667-110.933333c34.133333-34.133333 34.133333-85.333333 0-119.466667s-85.333333-34.133333-119.466667 0c-81.066667 85.333333-217.6 81.066667-302.933333 0-42.666667-42.666667-64-98.133333-64-153.6s21.333333-110.933333 64-149.333333c81.066667-85.333333 217.6-85.333333 302.933333 0l-76.8 76.8c-25.6 25.6-8.533333 72.533333 29.866667 72.533333H896c25.6 0 42.666667-17.066667 42.666667-42.666667V187.733333c0-38.4-46.933333-55.466667-72.533334-29.866666z" p-id="22627" fill="#999999"></path></svg>